<?xml version="1.0" encoding="UTF-8"?><svg xmlns="http://www.w3.org/2000/svg" xmlns:xlink="http://www.w3.org/1999/xlink" fill-opacity="1" color-rendering="auto" color-interpolation="auto" text-rendering="auto" stroke="black" stroke-linecap="square" width="2048" stroke-miterlimit="10" shape-rendering="auto" stroke-opacity="1" fill="black" stroke-dasharray="none" font-weight="normal" stroke-width="1" height="622" font-family="'Dialog'" font-style="normal" stroke-linejoin="miter" font-size="12px" stroke-dashoffset="0" image-rendering="auto">
  <!--Generated by ySVG 2.5-->
  <defs id="genericDefs"/>
  <g>
    <defs id="defs1">
      <clipPath clipPathUnits="userSpaceOnUse" id="clipPath1">
        <path d="M0 0 L2048 0 L2048 622 L0 622 L0 0 Z"/>
      </clipPath>
      <clipPath clipPathUnits="userSpaceOnUse" id="clipPath2">
        <path d="M-595 -680 L-85 -680 L-85 -525.1074 L-595 -525.1074 L-595 -680 Z"/>
      </clipPath>
    </defs>
    <g text-rendering="geometricPrecision" stroke-miterlimit="1.45" shape-rendering="geometricPrecision" transform="matrix(4.0157,0,0,4.0157,2389.3333,2730.6667)" stroke-linecap="butt">
      <rect x="-370" y="-664.8" clip-path="url(#clipPath2)" fill="none" width="80" rx="20" ry="20" height="40"/>
      <text x="-351.4395" xml:space="preserve" y="-640.6457" clip-path="url(#clipPath2)" font-family="sans-serif" stroke="none">Quality</text>
    </g>
    <g text-rendering="geometricPrecision" stroke-miterlimit="1.45" shape-rendering="geometricPrecision" transform="matrix(4.0157,0,0,4.0157,2389.3333,2730.6667)" stroke-linecap="butt">
      <path fill="none" d="M-580 -580 L-500 -580 L-500 -540 L-580 -540 Z" clip-path="url(#clipPath2)"/>
      <text x="-561.4395" xml:space="preserve" y="-562.8301" clip-path="url(#clipPath2)" font-family="sans-serif" stroke="none">Quality</text>
      <text x="-571.0957" xml:space="preserve" y="-548.8613" clip-path="url(#clipPath2)" font-family="sans-serif" stroke="none">Assurance</text>
    </g>
    <g text-rendering="geometricPrecision" stroke-miterlimit="1.45" shape-rendering="geometricPrecision" transform="matrix(4.0157,0,0,4.0157,2389.3333,2730.6667)" stroke-linecap="butt">
      <path fill="none" d="M-180.64 -580 L-100.64 -580 L-100.64 -540 L-180.64 -540 Z" clip-path="url(#clipPath2)"/>
      <text x="-162.0795" xml:space="preserve" y="-562.8301" clip-path="url(#clipPath2)" font-family="sans-serif" stroke="none">Quality</text>
      <text x="-162.4603" xml:space="preserve" y="-548.8613" clip-path="url(#clipPath2)" font-family="sans-serif" stroke="none">Control</text>
    </g>
    <g text-rendering="geometricPrecision" stroke-miterlimit="1.45" shape-rendering="geometricPrecision" transform="matrix(4.0157,0,0,4.0157,2389.3333,2730.6667)" stroke-linecap="butt">
      <path fill="none" d="M-330 -624.8063 L-330 -600 L-540 -600 L-540 -580.0391" clip-path="url(#clipPath2)"/>
    </g>
    <g text-rendering="geometricPrecision" stroke-miterlimit="1.45" shape-rendering="geometricPrecision" transform="matrix(4.0157,0,0,4.0157,2389.3333,2730.6667)" stroke-linecap="butt">
      <path fill="none" d="M-330 -624.8063 L-330 -600 L-140.64 -600 L-140.64 -580.0391" clip-path="url(#clipPath2)"/>
    </g>
  </g>
</svg>
