<?xml version="1.0" encoding="UTF-8"?><svg xmlns="http://www.w3.org/2000/svg" xmlns:xlink="http://www.w3.org/1999/xlink" fill-opacity="1" color-rendering="auto" color-interpolation="auto" text-rendering="auto" stroke="black" stroke-linecap="square" width="2048" stroke-miterlimit="10" shape-rendering="auto" stroke-opacity="1" fill="black" stroke-dasharray="none" font-weight="normal" stroke-width="1" height="622" font-family="'Dialog'" font-style="normal" stroke-linejoin="miter" font-size="12px" stroke-dashoffset="0" image-rendering="auto">
  <!--Generated by ySVG 2.5-->
  <defs id="genericDefs"/>
  <g>
    <defs id="defs1">
      <clipPath clipPathUnits="userSpaceOnUse" id="clipPath1">
        <path d="M0 0 L2048 0 L2048 622 L0 622 L0 0 Z"/>
      </clipPath>
      <clipPath clipPathUnits="userSpaceOnUse" id="clipPath2">
        <path d="M-768 -680 L5 -680 L5 -445.2314 L-768 -445.2314 L-768 -680 Z"/>
      </clipPath>
    </defs>
    <g text-rendering="geometricPrecision" stroke-miterlimit="1.45" shape-rendering="geometricPrecision" transform="matrix(2.6494,0,0,2.6494,2034.7529,1801.6041)" stroke-linecap="butt">
      <rect x="-370" y="-664.8" clip-path="url(#clipPath2)" fill="none" width="80" rx="20" ry="20" height="40"/>
      <text x="-351.4395" xml:space="preserve" y="-640.6457" clip-path="url(#clipPath2)" font-family="sans-serif" stroke="none">Quality</text>
    </g>
    <g text-rendering="geometricPrecision" stroke-miterlimit="1.45" shape-rendering="geometricPrecision" transform="matrix(2.6494,0,0,2.6494,2034.7529,1801.6041)" stroke-linecap="butt">
      <path fill="none" d="M-580 -580 L-500 -580 L-500 -540 L-580 -540 Z" clip-path="url(#clipPath2)"/>
      <text x="-561.4395" xml:space="preserve" y="-562.8301" clip-path="url(#clipPath2)" font-family="sans-serif" stroke="none">Quality</text>
      <text x="-571.0957" xml:space="preserve" y="-548.8613" clip-path="url(#clipPath2)" font-family="sans-serif" stroke="none">Assurance</text>
    </g>
    <g text-rendering="geometricPrecision" stroke-miterlimit="1.45" shape-rendering="geometricPrecision" transform="matrix(2.6494,0,0,2.6494,2034.7529,1801.6041)" stroke-linecap="butt">
      <path fill="none" d="M-752.48 -500.72 L-672.48 -500.72 L-672.48 -460.72 L-752.48 -460.72 Z" clip-path="url(#clipPath2)"/>
      <text x="-732.9028" xml:space="preserve" y="-483.5501" clip-path="url(#clipPath2)" font-family="sans-serif" stroke="none">Failure</text>
      <text x="-734.5933" xml:space="preserve" y="-469.5813" clip-path="url(#clipPath2)" font-family="sans-serif" stroke="none">Testing</text>
    </g>
    <g text-rendering="geometricPrecision" stroke-miterlimit="1.45" shape-rendering="geometricPrecision" transform="matrix(2.6494,0,0,2.6494,2034.7529,1801.6041)" stroke-linecap="butt">
      <path fill="none" d="M-659.52 -500.72 L-579.52 -500.72 L-579.52 -460.72 L-659.52 -460.72 Z" clip-path="url(#clipPath2)"/>
      <text x="-649.1655" xml:space="preserve" y="-483.5501" clip-path="url(#clipPath2)" font-family="sans-serif" stroke="none">Statistical</text>
      <text x="-641.3403" xml:space="preserve" y="-469.5813" clip-path="url(#clipPath2)" font-family="sans-serif" stroke="none">Control</text>
    </g>
    <g text-rendering="geometricPrecision" stroke-miterlimit="1.45" shape-rendering="geometricPrecision" transform="matrix(2.6494,0,0,2.6494,2034.7529,1801.6041)" stroke-linecap="butt">
      <path fill="none" d="M-566.56 -500.72 L-486.56 -500.72 L-486.56 -460.72 L-566.56 -460.72 Z" clip-path="url(#clipPath2)"/>
      <text x="-564.9389" xml:space="preserve" y="-483.5501" clip-path="url(#clipPath2)" font-family="sans-serif" stroke="none">Total Quality</text>
      <text x="-566.0844" xml:space="preserve" y="-469.5813" clip-path="url(#clipPath2)" font-family="sans-serif" stroke="none">Management</text>
    </g>
    <g text-rendering="geometricPrecision" stroke-miterlimit="1.45" shape-rendering="geometricPrecision" transform="matrix(2.6494,0,0,2.6494,2034.7529,1801.6041)" stroke-linecap="butt">
      <path fill="none" d="M-473.6 -500.72 L-393.6 -500.72 L-393.6 -460.72 L-473.6 -460.72 Z" clip-path="url(#clipPath2)"/>
      <text x="-467.9359" xml:space="preserve" y="-483.5501" clip-path="url(#clipPath2)" font-family="sans-serif" stroke="none">Models and</text>
      <text x="-464.1273" xml:space="preserve" y="-469.5813" clip-path="url(#clipPath2)" font-family="sans-serif" stroke="none">Standards</text>
    </g>
    <g text-rendering="geometricPrecision" stroke-miterlimit="1.45" shape-rendering="geometricPrecision" transform="matrix(2.6494,0,0,2.6494,2034.7529,1801.6041)" stroke-linecap="butt">
      <path fill="none" d="M-380.64 -500 L-300.64 -500 L-300.64 -460 L-380.64 -460 Z" clip-path="url(#clipPath2)"/>
      <text x="-369.184" xml:space="preserve" y="-482.8301" clip-path="url(#clipPath2)" font-family="sans-serif" stroke="none">Company</text>
      <text x="-362.0795" xml:space="preserve" y="-468.8613" clip-path="url(#clipPath2)" font-family="sans-serif" stroke="none">Quality</text>
    </g>
    <g text-rendering="geometricPrecision" stroke-miterlimit="1.45" shape-rendering="geometricPrecision" transform="matrix(2.6494,0,0,2.6494,2034.7529,1801.6041)" stroke-linecap="butt">
      <path fill="none" d="M-180.64 -580 L-100.64 -580 L-100.64 -540 L-180.64 -540 Z" clip-path="url(#clipPath2)"/>
      <text x="-162.0795" xml:space="preserve" y="-562.8301" clip-path="url(#clipPath2)" font-family="sans-serif" stroke="none">Quality</text>
      <text x="-162.4603" xml:space="preserve" y="-548.8613" clip-path="url(#clipPath2)" font-family="sans-serif" stroke="none">Control</text>
    </g>
    <g text-rendering="geometricPrecision" stroke-miterlimit="1.45" shape-rendering="geometricPrecision" transform="matrix(2.6494,0,0,2.6494,2034.7529,1801.6041)" stroke-linecap="butt">
      <path fill="none" d="M-180.64 -500 L-100.64 -500 L-100.64 -460 L-180.64 -460 Z" clip-path="url(#clipPath2)"/>
      <text x="-162.7533" xml:space="preserve" y="-475.8457" clip-path="url(#clipPath2)" font-family="sans-serif" stroke="none">Testing</text>
    </g>
    <g text-rendering="geometricPrecision" stroke-miterlimit="1.45" shape-rendering="geometricPrecision" transform="matrix(2.6494,0,0,2.6494,2034.7529,1801.6041)" stroke-linecap="butt">
      <path fill="none" d="M-270.64 -500 L-190.64 -500 L-190.64 -460 L-270.64 -460 Z" clip-path="url(#clipPath2)"/>
      <text x="-257.4554" xml:space="preserve" y="-482.8301" clip-path="url(#clipPath2)" font-family="sans-serif" stroke="none">Qualified</text>
      <text x="-260.1771" xml:space="preserve" y="-468.8613" clip-path="url(#clipPath2)" font-family="sans-serif" stroke="none">Personnel</text>
    </g>
    <g text-rendering="geometricPrecision" stroke-miterlimit="1.45" shape-rendering="geometricPrecision" transform="matrix(2.6494,0,0,2.6494,2034.7529,1801.6041)" stroke-linecap="butt">
      <path fill="none" d="M-90.64 -500 L-10.64 -500 L-10.64 -460 L-90.64 -460 Z" clip-path="url(#clipPath2)"/>
      <text x="-74.8714" xml:space="preserve" y="-475.8457" clip-path="url(#clipPath2)" font-family="sans-serif" stroke="none">Records</text>
    </g>
    <g text-rendering="geometricPrecision" stroke-miterlimit="1.45" shape-rendering="geometricPrecision" transform="matrix(2.6494,0,0,2.6494,2034.7529,1801.6041)" stroke-linecap="butt">
      <path fill="none" d="M-330 -624.8063 L-330 -600 L-540 -600 L-540 -580.0391" clip-path="url(#clipPath2)"/>
    </g>
    <g text-rendering="geometricPrecision" stroke-miterlimit="1.45" shape-rendering="geometricPrecision" transform="matrix(2.6494,0,0,2.6494,2034.7529,1801.6041)" stroke-linecap="butt">
      <path fill="none" d="M-540 -539.9662 L-540 -520.32 L-712.48 -520.32 L-712.48 -500.7133" clip-path="url(#clipPath2)"/>
      <path fill="none" d="M-540 -539.9662 L-540 -520.32 L-619.52 -520.32 L-619.52 -500.7133" clip-path="url(#clipPath2)"/>
      <path fill="none" d="M-540 -539.9667 L-540 -520.3209 L-527.2031 -520.3209 L-526.8846 -500.7138" clip-path="url(#clipPath2)"/>
      <path fill="none" d="M-540 -540.0326 L-540 -520.4514 L-433.6 -520.4514 L-433.6 -500.7021" clip-path="url(#clipPath2)"/>
      <path fill="none" d="M-540 -540.0319 L-540 -520.7538 L-340.64 -520.7538 L-340.64 -500.0187" clip-path="url(#clipPath2)"/>
      <path fill="none" d="M-330 -624.8063 L-330 -600 L-140.64 -600 L-140.64 -580.0391" clip-path="url(#clipPath2)"/>
      <path fill="none" d="M-140.64 -540.0391 L-140.64 -500.0228" clip-path="url(#clipPath2)"/>
      <path fill="none" d="M-163.118 -540.0195 L-208.1217 -500.0163" clip-path="url(#clipPath2)"/>
      <path fill="none" d="M-118.162 -540.0195 L-73.1583 -500.0163" clip-path="url(#clipPath2)"/>
    </g>
  </g>
</svg>
